<svg width="64" height="13" viewBox="0 0 64 13" fill="none" xmlns="http://www.w3.org/2000/svg">
<path d="M61.558 13L64 10.4163L56.6043 2.59184L56.612 2.58368L54.17 0L54.1623 0.00815469L54.1546 0L51.7131 2.58368L51.7208 2.59184L46.7752 7.82447L41.8291 2.59184L41.8369 2.58368L39.3949 0L39.3876 0.00815469L39.3799 0L36.9379 2.58368L36.9456 2.59184L32 7.82447L27.0544 2.59184L27.0617 2.58368L24.6201 0L24.6124 0.00815469L24.6047 0L22.1627 2.58368L22.1705 2.59184L17.2248 7.82447L12.2792 2.59184L12.2869 2.58368L9.84497 0L9.83726 0.00815469L9.82955 0L7.38758 2.58368L7.39529 2.59184L0 10.4163L2.44197 13L9.83726 5.17553L14.7829 10.4082L14.7752 10.4163L17.2171 13L17.2248 12.9918L17.2325 13L19.6745 10.4163L19.6668 10.4082L24.6124 5.17553L29.558 10.4082L29.5503 10.4163L31.9923 13L32 12.9918L32.0077 13L34.4497 10.4163L34.442 10.4082L39.3876 5.17553L44.3332 10.4082L44.3255 10.4163L46.7675 13L46.7752 12.9918L46.7829 13L49.2248 10.4163L49.2171 10.4082L54.1623 5.17553L61.558 13Z" fill="#E62B25"/>
</svg>
